<?xml version="1.0" encoding="utf-8"?>
<!-- Generator: Adobe Illustrator 19.0.0, SVG Export Plug-In . SVG Version: 6.00 Build 0)  -->
<svg xmlns="http://www.w3.org/2000/svg" xmlns:xlink="http://www.w3.org/1999/xlink" version="1.1" id="Layer_1" x="0px" y="0px" viewBox="0 2 98 98" style="enable-background:new 0 2 98 98;" xml:space="preserve" width="512" height="512">
<style type="text/css">
	.st0{fill:url(#SVGID_1_);}
	.st1{fill:url(#SVGID_2_);}
	.st2{fill:url(#SVGID_3_);}
</style>
<g>
	<linearGradient id="SVGID_1_" gradientUnits="userSpaceOnUse" x1="39.95" y1="11.5" x2="39.95" y2="96.5004">
		<stop offset="0" style="stop-color:#00EFD1"/>
		<stop offset="1" style="stop-color:#00ACEA"/>
	</linearGradient>
	<path class="st0" d="M13.6,72.1h7.2c1.7,0,3-1.3,3-3c0-1.7-1.3-3-3-3h-4.2V39.9h13v18c0,1.7,1.3,3,3,3c1.7,0,3-1.3,3-3V38.6   l27.7-16.2v3.3c0,1.7,1.3,3,3,3s3-1.3,3-3v-8.5c0-1.1-0.6-2.1-1.5-2.6c-0.9-0.5-2.1-0.5-3,0l-33,19.3H13.6c-1.7,0-3,1.3-3,3v32.2   C10.6,70.8,12,72.1,13.6,72.1z"/>
	<linearGradient id="SVGID_2_" gradientUnits="userSpaceOnUse" x1="52.2723" y1="11.5" x2="52.2723" y2="96.5004">
		<stop offset="0" style="stop-color:#00EFD1"/>
		<stop offset="1" style="stop-color:#00ACEA"/>
	</linearGradient>
	<path class="st1" d="M66.3,47c-1.7,0-3,1.3-3,3v33.8L39.6,71.2c-1.5-0.8-3.3-0.2-4.1,1.3s-0.2,3.3,1.3,4.1L65,91.5   c0.4,0.2,0.9,0.3,1.4,0.3s1.1-0.1,1.5-0.4c0.9-0.5,1.5-1.5,1.5-2.6V50C69.3,48.3,68,47,66.3,47z"/>
	<linearGradient id="SVGID_3_" gradientUnits="userSpaceOnUse" x1="48.995" y1="11.5" x2="48.995" y2="96.5004">
		<stop offset="0" style="stop-color:#00EFD1"/>
		<stop offset="1" style="stop-color:#00ACEA"/>
	</linearGradient>
	<path class="st2" d="M87.4,19.2c-1.1-1.2-3-1.3-4.2-0.2L10.8,85.9c-1.2,1.1-1.3,3-0.2,4.2c0.6,0.6,1.4,1,2.2,1c0.7,0,1.5-0.3,2-0.8   l72.3-66.9C88.4,22.3,88.5,20.4,87.4,19.2z"/>
</g>
</svg>
