<?xml version="1.0" encoding="iso-8859-1"?>
<!-- Generator: Adobe Illustrator 19.0.0, SVG Export Plug-In . SVG Version: 6.00 Build 0)  -->
<svg version="1.1" id="Capa_1" xmlns="http://www.w3.org/2000/svg" xmlns:xlink="http://www.w3.org/1999/xlink" x="0px" y="0px"
	 viewBox="0 0 512 512" style="enable-background:new 0 0 512 512;" xml:space="preserve">
<linearGradient id="SVGID_1_" gradientUnits="userSpaceOnUse" x1="256.5957" y1="513.7285" x2="256.5957" y2="0.7285" gradientTransform="matrix(0.9981 0 0 -0.9981 -0.0955 512.7271)">
	<stop  offset="0" style="stop-color:#2AF598"/>
	<stop  offset="1" style="stop-color:#009EFD"/>
</linearGradient>
<path style="fill:url(#SVGID_1_);" d="M256,512c-68.247,0-132.408-26.577-180.667-74.834
	C27.076,388.907,0.499,324.746,0.499,256.499v-0.998c0-68.247,26.577-132.408,74.834-180.667C123.592,26.577,187.753,0,256,0
	s132.408,26.577,180.667,74.834c48.257,48.259,74.834,112.42,74.834,180.667v0.998c0,68.247-26.577,132.408-74.834,180.667
	C388.408,485.423,324.247,512,256,512z M256,39.922c-118.871,0-215.579,96.708-215.579,215.579v0.998
	c0,118.871,96.708,215.579,215.579,215.579s215.579-96.708,215.579-215.579v-0.998C471.579,136.63,374.871,39.922,256,39.922z
	 M241.029,376.265H121.263V134.737h119.766V376.265z M161.185,336.343h39.922V174.659h-39.922V336.343z M389.739,376.265H269.973
	V134.737h119.766V376.265z M309.895,336.343h39.922V174.659h-39.922V336.343z"/>
<g>
</g>
<g>
</g>
<g>
</g>
<g>
</g>
<g>
</g>
<g>
</g>
<g>
</g>
<g>
</g>
<g>
</g>
<g>
</g>
<g>
</g>
<g>
</g>
<g>
</g>
<g>
</g>
<g>
</g>
</svg>
