<?xml version="1.0" encoding="iso-8859-1"?>
<!-- Generator: Adobe Illustrator 19.0.0, SVG Export Plug-In . SVG Version: 6.00 Build 0)  -->
<svg version="1.1" id="Capa_1" xmlns="http://www.w3.org/2000/svg" xmlns:xlink="http://www.w3.org/1999/xlink" x="0px" y="0px"
	 viewBox="0 0 432.588 432.588" style="enable-background:new 0 0 432.588 432.588;" xml:space="preserve">
<g>
	
		<linearGradient id="SVGID_1_" gradientUnits="userSpaceOnUse" x1="-45.7772" y1="562.5221" x2="-45.7772" y2="480.6621" gradientTransform="matrix(5.2245 0 0 -5.2245 374.7381 2939.7073)">
		<stop  offset="0" style="stop-color:#00EFD1"/>
		<stop  offset="1" style="stop-color:#00ACEA"/>
	</linearGradient>
	<path style="fill:url(#SVGID_1_);" d="M262.792,11.004c-5.224-2.612-11.494-2.09-16.196,1.567L108.669,113.404H15.673
		C6.792,113.404,0,120.196,0,129.078v174.498c0,8.882,6.792,15.673,15.673,15.673h92.996l137.404,100.833
		c2.612,2.09,5.747,3.135,9.404,3.135c2.612,0,4.702-0.522,7.314-1.567c5.224-2.612,8.359-7.837,8.359-14.106V25.11
		C271.151,19.363,268.016,13.616,262.792,11.004z M98.22,287.902H31.347V144.751H98.22C98.22,144.751,98.22,287.902,98.22,287.902z
		 M239.804,376.718l-110.237-80.98V136.914l110.237-80.98V376.718z"/>
	
		<linearGradient id="SVGID_2_" gradientUnits="userSpaceOnUse" x1="-6.5136" y1="562.5221" x2="-6.5136" y2="480.6621" gradientTransform="matrix(5.2245 0 0 -5.2245 374.7381 2939.7073)">
		<stop  offset="0" style="stop-color:#00EFD1"/>
		<stop  offset="1" style="stop-color:#00ACEA"/>
	</linearGradient>
	<path style="fill:url(#SVGID_2_);" d="M330.71,280.588c26.645-11.494,42.318-35.527,42.318-64.261s-15.673-52.767-42.318-64.261
		c-7.837-3.657-17.241,0-20.898,7.837c-3.657,7.837,0,17.241,7.837,20.898c15.151,6.792,23.51,19.853,23.51,36.049
		s-8.359,29.257-23.51,36.049c-7.837,3.657-11.494,13.061-7.837,20.898c2.612,5.747,8.359,9.404,14.106,9.404
		C326.531,282.155,328.62,281.633,330.71,280.588z"/>
	
		<linearGradient id="SVGID_3_" gradientUnits="userSpaceOnUse" x1="-0.2537" y1="562.5221" x2="-0.2537" y2="480.6621" gradientTransform="matrix(5.2245 0 0 -5.2245 374.7381 2939.7073)">
		<stop  offset="0" style="stop-color:#00EFD1"/>
		<stop  offset="1" style="stop-color:#00ACEA"/>
	</linearGradient>
	<path style="fill:url(#SVGID_3_);" d="M332.8,94.073c-8.359-1.567-16.718,3.657-18.286,12.539
		c-1.567,8.359,3.657,16.718,12.539,18.286c43.363,8.359,74.71,47.02,74.71,91.951s-31.347,83.069-74.71,91.951
		c-8.359,1.567-14.106,9.927-12.539,18.286c1.567,7.314,7.837,12.539,15.151,12.539c1.045,0,2.09,0,3.135-0.522
		c57.992-12.016,99.788-63.216,99.788-122.776S390.792,105.045,332.8,94.073z"/>
</g>
<g>
</g>
<g>
</g>
<g>
</g>
<g>
</g>
<g>
</g>
<g>
</g>
<g>
</g>
<g>
</g>
<g>
</g>
<g>
</g>
<g>
</g>
<g>
</g>
<g>
</g>
<g>
</g>
<g>
</g>
</svg>
