<?xml version="1.0" encoding="iso-8859-1"?>
<!-- Generator: Adobe Illustrator 19.0.0, SVG Export Plug-In . SVG Version: 6.00 Build 0)  -->
<svg version="1.1" id="Capa_1" xmlns="http://www.w3.org/2000/svg" xmlns:xlink="http://www.w3.org/1999/xlink" x="0px" y="0px"
	 viewBox="0 0 511.968 511.968" style="enable-background:new 0 0 511.968 511.968;" xml:space="preserve">
<path style="fill:#4CAF50;" d="M155.216,337.856C235.12,487.648,257.584,511.968,312.4,511.968
	c59.52,0,119.584-44.064,119.584-83.936c0-13.504-7.296-25.408-14.592-29.024c-25.056,13.472-47.52,20.736-67.904,20.736
	c-26.112,0-40.736-11.424-123.776-132.672C288.88,233.184,326,197.408,374,129.536c41.28-26.944,57.44-50.784,57.44-72.544
	c0-18.656-16.192-43.52-37.056-43.52c-9.952,0-17.76,9.344-28.224,25.408C289.392,9.856,253.36,0,213.68,0
	c-37.088,0-67.36,32.128-67.36,69.44c0,21.248,8.896,33.152,22.432,37.312c17.76-10.336,32.384-14.496,41.76-14.496
	c24.576,0,62.688,10.88,109.664,24.864c-23.488,33.664-84.576,95.872-128.448,130.08c-16.704-14.016-27.168-19.168-42.272-19.168
	c-48.576,0-69.472,55.968-69.472,90.688c0,35.232,8.352,45.088,21.408,45.088C116.016,363.744,140.048,351.328,155.216,337.856z"/>
<g>
</g>
<g>
</g>
<g>
</g>
<g>
</g>
<g>
</g>
<g>
</g>
<g>
</g>
<g>
</g>
<g>
</g>
<g>
</g>
<g>
</g>
<g>
</g>
<g>
</g>
<g>
</g>
<g>
</g>
</svg>
