<?xml version="1.0" encoding="iso-8859-1"?>
<!-- Generator: Adobe Illustrator 19.0.0, SVG Export Plug-In . SVG Version: 6.00 Build 0)  -->
<svg version="1.1" id="Capa_1" xmlns="http://www.w3.org/2000/svg" xmlns:xlink="http://www.w3.org/1999/xlink" x="0px" y="0px"
	 viewBox="0 0 512 512" style="enable-background:new 0 0 512 512;" xml:space="preserve">
<path style="fill:#EC407A;" d="M392.773,0H122.821c-37.088,0-48.16,28.384-48.16,46.24v433.792c0,21.376,10.752,27.68,16.64,30.144
	c2.304,0.96,6.144,1.824,10.592,1.824c6.88,0,15.232-2.048,21.984-8.832c0,0,128.224-151.008,130.304-153.472
	c2.08-2.464,3.104-2.464,4.512-2.464h81.088c34.656,0,41.248-24.192,45.056-38.88c3.104-12.256,38.816-187.456,49.888-242.816
	C443.013,22.784,432.261,0,392.773,0z"/>
<path style="fill:#FAFAFA;" d="M327.461,270.752c-1.536,7.424-8.032,12.48-15.616,12.48h-53.184
	c-20.992,0-39.424,8.672-53.312,25.056l-66.688,78.56V80c0-8.832,7.168-16,16-16h195.52c10.112,0,17.728,9.088,15.712,19.008
	c-2.912,14.464-6.272,30.912-9.76,48.128c-1.536,7.456-8.096,12.864-15.68,12.864h-89.792c-8.832,0-16,7.168-16,16v32
	c0,8.832,7.168,16,16,16h70.144c10.144,0,17.696,9.408,15.648,19.328C332.965,244.32,329.829,259.36,327.461,270.752z"/>
<g>
</g>
<g>
</g>
<g>
</g>
<g>
</g>
<g>
</g>
<g>
</g>
<g>
</g>
<g>
</g>
<g>
</g>
<g>
</g>
<g>
</g>
<g>
</g>
<g>
</g>
<g>
</g>
<g>
</g>
</svg>
