<?xml version="1.0" encoding="iso-8859-1"?>
<!-- Generator: Adobe Illustrator 19.0.0, SVG Export Plug-In . SVG Version: 6.00 Build 0)  -->
<svg version="1.1" id="Capa_1" xmlns="http://www.w3.org/2000/svg" xmlns:xlink="http://www.w3.org/1999/xlink" x="0px" y="0px"
	 viewBox="0 0 512 512" style="enable-background:new 0 0 512 512;" xml:space="preserve">
<polygon style="fill:#009688;" points="48,512 256,0 464,512 "/>
<path style="fill:#FAFAFA;" d="M364.032,361.12c-4-7.936-13.664-11.168-21.472-7.104L288,381.472V365.44l0,0
	c3.04,0,6.112-0.864,8.864-2.688l30.72-20.48c7.328-4.896,9.344-14.848,4.448-22.176c-4.928-7.36-14.944-9.312-22.176-4.448
	L288,330.208V288h-64v80.352l-29.6-29.856c-6.208-6.272-16.352-6.336-22.624-0.128s-6.304,16.384-0.096,22.624l41.28,41.632
	c3.04,3.072,7.04,4.608,11.04,4.704V512h64v-96.64l0,0c2.4,0,4.864-0.544,7.168-1.728l61.76-31.072
	C364.832,378.624,368,369.024,364.032,361.12z"/>
<g>
</g>
<g>
</g>
<g>
</g>
<g>
</g>
<g>
</g>
<g>
</g>
<g>
</g>
<g>
</g>
<g>
</g>
<g>
</g>
<g>
</g>
<g>
</g>
<g>
</g>
<g>
</g>
<g>
</g>
</svg>
