<?xml version="1.0"?>
<svg xmlns="http://www.w3.org/2000/svg" xmlns:xlink="http://www.w3.org/1999/xlink" xmlns:svgjs="http://svgjs.com/svgjs" version="1.1" width="512" height="512" x="0" y="0" viewBox="0 0 512 512" style="enable-background:new 0 0 512 512" xml:space="preserve" class=""><g>
<g xmlns="http://www.w3.org/2000/svg">
	<g>
		<path d="M187.753,0H51.18C22.959,0,0,22.958,0,51.179v136.575c0,28.221,22.959,51.179,51.18,51.179h136.573    c28.221,0,51.18-22.958,51.18-51.179V51.179C238.933,22.958,215.974,0,187.753,0z M221.867,187.754    c0,18.81-15.303,34.112-34.114,34.112H51.18c-18.81,0-34.114-15.302-34.114-34.112V51.179c0-18.81,15.303-34.112,34.114-34.112    h136.573c18.81,0,34.114,15.302,34.114,34.112V187.754z" fill="#ffffff" data-original="#000000" style="" class=""/>
	</g>
</g>
<g xmlns="http://www.w3.org/2000/svg">
	<g>
		<path d="M187.753,273.067H51.18C22.959,273.067,0,296.025,0,324.246v136.575C0,489.042,22.959,512,51.18,512h136.573    c28.221,0,51.18-22.958,51.18-51.179V324.246C238.933,296.025,215.974,273.067,187.753,273.067z M221.867,460.821    c0,18.81-15.303,34.112-34.114,34.112H51.18c-18.81,0-34.114-15.302-34.114-34.112V324.246c0-18.81,15.303-34.113,34.114-34.113    h136.573c18.81,0,34.114,15.302,34.114,34.112V460.821z" fill="#ffffff" data-original="#000000" style="" class=""/>
	</g>
</g>
<g xmlns="http://www.w3.org/2000/svg">
	<g>
		<path d="M460.82,0H324.247c-28.221,0-51.18,22.958-51.18,51.179v136.575c0,28.221,22.959,51.179,51.18,51.179H460.82    c28.221,0,51.18-22.958,51.18-51.179V51.179C512,22.958,489.041,0,460.82,0z M494.933,187.754    c0,18.81-15.303,34.112-34.114,34.112H324.247c-18.81,0-34.113-15.302-34.113-34.112V51.179c0-18.81,15.303-34.112,34.114-34.112    H460.82c18.81,0,34.113,15.302,34.113,34.112V187.754z" fill="#ffffff" data-original="#000000" style="" class=""/>
	</g>
</g>
<g xmlns="http://www.w3.org/2000/svg">
	<g>
		<path d="M460.82,273.067H324.247c-28.221,0-51.18,22.958-51.18,51.179v136.575c0,28.221,22.959,51.179,51.18,51.179H460.82    c28.221,0,51.18-22.958,51.18-51.179V324.246C512,296.025,489.041,273.067,460.82,273.067z M494.933,460.821    c0,18.81-15.303,34.112-34.114,34.112H324.247c-18.81,0-34.113-15.302-34.113-34.112V324.246c0-18.81,15.303-34.113,34.114-34.113    H460.82c18.81,0,34.113,15.302,34.113,34.112V460.821z" fill="#ffffff" data-original="#000000" style="" class=""/>
	</g>
</g>
<g xmlns="http://www.w3.org/2000/svg">
</g>
<g xmlns="http://www.w3.org/2000/svg">
</g>
<g xmlns="http://www.w3.org/2000/svg">
</g>
<g xmlns="http://www.w3.org/2000/svg">
</g>
<g xmlns="http://www.w3.org/2000/svg">
</g>
<g xmlns="http://www.w3.org/2000/svg">
</g>
<g xmlns="http://www.w3.org/2000/svg">
</g>
<g xmlns="http://www.w3.org/2000/svg">
</g>
<g xmlns="http://www.w3.org/2000/svg">
</g>
<g xmlns="http://www.w3.org/2000/svg">
</g>
<g xmlns="http://www.w3.org/2000/svg">
</g>
<g xmlns="http://www.w3.org/2000/svg">
</g>
<g xmlns="http://www.w3.org/2000/svg">
</g>
<g xmlns="http://www.w3.org/2000/svg">
</g>
<g xmlns="http://www.w3.org/2000/svg">
</g>
</g></svg>
