<svg viewBox="0 0 512 512" xmlns="http://www.w3.org/2000/svg"><path d="m256 512c-140.609375 0-256-115.390625-256-256s115.390625-256 256-256 256 115.390625 256 256-115.390625 256-256 256zm0 0" fill="#deecf1"/><path d="m512 256c0-140.609375-115.390625-256-256-256v512c140.609375 0 256-115.390625 256-256zm0 0" fill="#c6e2e7"/><path d="m151 391c33.648438 0 60-19.761719 60-45v-109.851562l120-47.996094v88.917968c-8.808594-3.765624-18.9375-6.070312-30-6.070312-33.648438 0-60 19.761719-60 45s26.351562 45 60 45 60-19.761719 60-45v-232.148438l-180 71.996094v151.21875c-8.808594-3.761718-18.9375-6.066406-30-6.066406-33.648438 0-60 19.761719-60 45s26.351562 45 60 45zm0 0" fill="#384949"/><path d="m256 218.148438 75-30v88.917968c-8.808594-3.761718-18.9375-6.066406-30-6.066406-18.203125 0-34.085938 5.90625-45 15.210938v59.578124c10.914062 9.304688 26.796875 15.210938 45 15.210938 33.648438 0 60-19.761719 60-45v-232.148438l-105 42zm0 0" fill="#293939"/></svg>