<svg viewBox="0 0 512 512" xmlns="http://www.w3.org/2000/svg"><path d="m256 512c-140.609375 0-256-115.390625-256-256s115.390625-256 256-256 256 115.390625 256 256-115.390625 256-256 256zm0 0" fill="#deecf1"/><path d="m512 256c0-140.609375-115.390625-256-256-256v512c140.609375 0 256-115.390625 256-256zm0 0" fill="#c6e2e7"/><path d="m391 256c0-4.894531-.335938-9.945312-1.070312-15.496094l44.109374-37.867187-43.304687-73.273438-54.8125 18.546875c-8.230469-6.125-17.035156-11.234375-26.308594-15.292968l-11.308593-56.617188h-84.609376l-11.308593 56.617188c-9.273438 4.058593-18.074219 9.167968-26.308594 15.292968l-54.8125-18.546875-42.304687 73.273438 43.109374 37.863281c-.734374 5.554688-1.070312 10.605469-1.070312 15.5 0 4.878906.351562 9.933594 1.070312 15.496094l-43.109374 37.867187 42.304687 73.273438 54.828125-18.5625c8.230469 6.140625 17.035156 11.25 26.292969 15.308593l11.308593 56.617188h84.609376l11.308593-56.617188c9.257813-4.058593 18.0625-9.167968 26.292969-15.308593l54.828125 18.5625 43.304687-73.273438-44.109374-37.863281c.71875-5.566406 1.070312-10.621094 1.070312-15.5zm-135 45c-24.8125 0-45-20.1875-45-45s20.1875-45 45-45 45 20.1875 45 45-20.1875 45-45 45zm0 0" fill="#384949"/><path d="m390.734375 129.363281-54.8125 18.546875c-8.230469-6.125-17.035156-11.234375-26.308594-15.292968l-11.308593-56.617188h-42.304688v135c24.8125 0 45 20.1875 45 45s-20.1875 45-45 45v135h42.304688l11.308593-56.617188c9.257813-4.058593 18.0625-9.167968 26.292969-15.308593l54.832031 18.5625 43.304688-73.273438-44.109375-37.863281c.714844-5.566406 1.066406-10.621094 1.066406-15.5 0-4.894531-.335938-9.945312-1.070312-15.496094l44.109374-37.867187zm0 0" fill="#293939"/></svg>