<svg viewBox="0 0 512 512" xmlns="http://www.w3.org/2000/svg"><path d="m256 512c-140.609375 0-256-115.390625-256-256s115.390625-256 256-256 256 115.390625 256 256-115.390625 256-256 256zm0 0" fill="#deecf1"/><path d="m512 256c0-140.609375-115.390625-256-256-256v512c140.609375 0 256-115.390625 256-256zm0 0" fill="#c6e2e7"/><path d="m376 166-60 90h30c0 24.039062-9.359375 46.640625-26.351562 63.648438-17.007813 16.992187-39.609376 26.351562-63.648438 26.351562-14.589844 0-28.652344-3.449219-41.253906-9.960938l-33.394532 50.097657c21.984376 12.636719 47.472657 19.863281 74.648438 19.863281 41.421875 0 78.921875-16.789062 106.066406-43.933594 27.144532-27.144531 43.933594-64.644531 43.933594-106.066406h31zm0 0" fill="#384949"/><path d="m362.066406 362.066406c27.144532-27.144531 43.933594-64.644531 43.933594-106.066406h31l-61-90-60 90h30c0 24.039062-9.359375 46.640625-26.351562 63.648438-17.007813 16.992187-39.609376 26.351562-63.648438 26.351562v60c41.421875 0 78.921875-16.789062 106.066406-43.933594zm0 0" fill="#293939"/><path d="m256 106c-41.421875 0-78.921875 16.789062-106.066406 43.933594-27.144532 27.144531-43.933594 64.644531-43.933594 106.066406h-30l60 90 60-90h-30c0-24.039062 9.359375-46.640625 26.351562-63.648438 17.007813-16.992187 39.609376-26.351562 63.648438-26.351562 14.589844 0 28.652344 3.449219 41.253906 9.957031l33.394532-50.09375c-21.984376-12.636719-47.472657-19.863281-74.648438-19.863281zm0 0" fill="#384949"/><path d="m297.253906 175.957031 33.394532-50.09375c-21.984376-12.636719-47.472657-19.863281-74.648438-19.863281v60c14.589844 0 28.652344 3.449219 41.253906 9.957031zm0 0" fill="#293939"/></svg>