<svg viewBox="0 0 512 512" xmlns="http://www.w3.org/2000/svg"><path d="m256 512c-140.609375 0-256-115.390625-256-256s115.390625-256 256-256 256 115.390625 256 256-115.390625 256-256 256zm0 0" fill="#deecf1"/><path d="m512 256c0-140.609375-115.390625-256-256-256v512c140.609375 0 256-115.390625 256-256zm0 0" fill="#c6e2e7"/><path d="m181 259.582031v-63.582031h135v30l75-60-75-60v30h-135c-33.136719 0-60 26.863281-60 60v111.585938zm0 0" fill="#384949"/><path d="m316 136h-60v60h60v30l75-60-75-60zm0 0" fill="#293939"/><path d="m331 252.417969v63.582031h-135v-29.996094l-74.996094 60c.015625.011719 15.324219 12.257813 32.109375 25.6875 20.363281 16.289063 42.886719 34.308594 42.886719 34.308594v-30h135c33.136719 0 60-26.863281 60-60 0 0 0-69.277344 0-111.585938zm0 0" fill="#384949"/><path d="m331 316h-75v60h75c33.136719 0 60-26.863281 60-60 0 0 0-69.277344 0-111.585938l-60 48.003907zm0 0" fill="#293939"/></svg>