<svg viewBox="0 0 512 512" xmlns="http://www.w3.org/2000/svg"><path d="m256 512c-140.609375 0-256-115.390625-256-256s115.390625-256 256-256 256 115.390625 256 256-115.390625 256-256 256zm0 0" fill="#deecf1"/><path d="m512 256c0-140.609375-115.390625-256-256-256v512c140.609375 0 256-115.390625 256-256zm0 0" fill="#c6e2e7"/><path d="m181 273.761719v-152.761719h-30v152.761719c-17.421875 6.214843-30 22.707031-30 42.238281s12.578125 36.023438 30 42.238281v32.761719h30v-32.761719c17.421875-6.214843 30-22.707031 30-42.238281s-12.578125-36.023438-30-42.238281zm0 0" fill="#384949"/><path d="m301 196c0-19.53125-12.578125-36.023438-30-42.238281v-32.761719h-30v32.761719c-17.421875 6.214843-30 22.707031-30 42.238281s12.578125 36.023438 30 42.238281v152.761719h30v-152.761719c17.421875-6.214843 30-22.707031 30-42.238281zm0 0" fill="#384949"/><g fill="#293939"><path d="m271 153.761719v-32.761719h-15v270h15v-152.761719c17.421875-6.214843 30-22.707031 30-42.238281s-12.578125-36.023438-30-42.238281zm0 0"/><path d="m361 273.761719v-152.761719h-30v152.761719c-17.421875 6.214843-30 22.707031-30 42.238281s12.578125 36.023438 30 42.238281v32.761719h30v-32.761719c17.421875-6.214843 30-22.707031 30-42.238281s-12.578125-36.023438-30-42.238281zm0 0"/></g></svg>