<svg viewBox="0 0 512 512" xmlns="http://www.w3.org/2000/svg"><path d="m256 512c-140.609375 0-256-115.390625-256-256s115.390625-256 256-256 256 115.390625 256 256-115.390625 256-256 256zm0 0" fill="#deecf1"/><path d="m512 256c0-140.609375-115.390625-256-256-256v512c140.609375 0 256-115.390625 256-256zm0 0" fill="#c6e2e7"/><path d="m391 243.761719v-17.761719c0-74.441406-60.558594-135-135-135s-135 60.558594-135 135v17.761719c-17.421875 6.214843-30 22.707031-30 42.238281v30c0 24.8125 20.1875 45 45 45h45v-120h-30v-15c0-57.890625 47.109375-105 105-105s105 47.109375 105 105v15h-30v120h45c24.8125 0 45-20.1875 45-45v-30c0-19.53125-12.578125-36.023438-30-42.238281zm0 0" fill="#384949"/><path d="m361 226v15h-30v120h45c24.8125 0 45-20.1875 45-45v-30c0-19.53125-12.578125-36.023438-30-42.238281v-17.761719c0-74.441406-60.558594-135-135-135v30c57.890625 0 105 47.109375 105 105zm0 0" fill="#293939"/></svg>