<svg viewBox="0 0 512 512" xmlns="http://www.w3.org/2000/svg"><path d="m256 512c-140.609375 0-256-115.390625-256-256s115.390625-256 256-256 256 115.390625 256 256-115.390625 256-256 256zm0 0" fill="#deecf1"/><path d="m512 256c0-140.609375-115.390625-256-256-256v512c140.609375 0 256-115.390625 256-256zm0 0" fill="#c6e2e7"/><path d="m196 211v-30c0-33.089844 26.910156-60 60-60s60 26.910156 60 60h30c0-49.628906-40.371094-90-90-90s-90 40.371094-90 90v30h-30v180h240v-180zm75 120h-30v-60h30zm0 0" fill="#384949"/><g fill="#293939"><path d="m256 271h15v60h-15v60h120v-180h-120zm0 0"/><path d="m316 181h30c0-49.628906-40.371094-90-90-90v30c33.089844 0 60 26.910156 60 60zm0 0"/></g></svg>