<svg viewBox="0 0 512 512" xmlns="http://www.w3.org/2000/svg"><path d="m256 512c-140.609375 0-256-115.390625-256-256s115.390625-256 256-256 256 115.390625 256 256-115.390625 256-256 256zm0 0" fill="#deecf1"/><path d="m512 256c0-140.609375-115.390625-256-256-256v512c140.609375 0 256-115.390625 256-256zm0 0" fill="#c6e2e7"/><path d="m166 256.429688c.234375 49.433593 40.515625 89.570312 90 89.570312 24.039062 0 46.640625-9.359375 63.648438-26.351562 16.992187-17.007813 26.351562-39.609376 26.351562-63.648438h-30l60-90 60 90h-30c0 41.421875-16.789062 78.921875-43.933594 106.066406-27.144531 27.144532-64.644531 43.933594-106.066406 43.933594-82.84375 0-150-67.15625-150-150 0-41.421875 16.789062-78.921875 43.933594-106.066406 27.144531-27.144532 64.644531-43.933594 106.066406-43.933594 27.175781 0 52.664062 7.226562 74.648438 19.863281l-33.394532 50.09375c-12.601562-6.507812-26.664062-9.957031-41.253906-9.957031-24.039062 0-46.640625 9.359375-63.648438 26.351562-16.992187 17.007813-26.351562 39.609376-26.351562 64.078126zm0 0" fill="#384949"/><g fill="#293939"><path d="m316 256h30c0 24.039062-9.359375 46.640625-26.351562 63.648438-17.007813 16.992187-39.609376 26.351562-63.648438 26.351562v60c41.421875 0 78.921875-16.789062 106.066406-43.933594 27.144532-27.144531 43.933594-64.644531 43.933594-106.066406h30l-60-90zm0 0"/><path d="m297.253906 175.957031 33.394532-50.09375c-21.984376-12.636719-47.472657-19.863281-74.648438-19.863281v60c14.589844 0 28.652344 3.449219 41.253906 9.957031zm0 0"/></g></svg>