<svg viewBox="0 0 512 512" xmlns="http://www.w3.org/2000/svg"><path d="m256 512c-140.609375 0-256-115.390625-256-256s115.390625-256 256-256 256 115.390625 256 256-115.390625 256-256 256zm0 0" fill="#deecf1"/><path d="m512 256c0-140.609375-115.390625-256-256-256v512c140.609375 0 256-115.390625 256-256zm0 0" fill="#c6e2e7"/><path d="m331 121h30v270h-30zm0 0" fill="#293939"/><path d="m271 181h30v210h-30zm0 0" fill="#293939"/><g fill="#384949"><path d="m211 241h30v150h-30zm0 0"/><path d="m151 301h30v90h-30zm0 0"/></g></svg>