<svg viewBox="0 0 512 512" xmlns="http://www.w3.org/2000/svg"><path d="m256 512c-140.609375 0-256-115.390625-256-256s115.390625-256 256-256 256 115.390625 256 256-115.390625 256-256 256zm0 0" fill="#deecf1"/><path d="m512 256c0-140.609375-115.390625-256-256-256v512c140.609375 0 256-115.390625 256-256zm0 0" fill="#c6e2e7"/><path d="m121 331h60v60h30v-90h-90zm0 0" fill="#384949"/><path d="m181 181h-60v30h90v-90h-30zm0 0" fill="#384949"/><g fill="#293939"><path d="m331 121h-30v90h90v-30h-60zm0 0"/><path d="m301 391h30v-60h60v-30h-90zm0 0"/></g></svg>