<svg viewBox="0 0 512 512" xmlns="http://www.w3.org/2000/svg"><path d="m256 512c-140.609375 0-256-115.390625-256-256s115.390625-256 256-256 256 115.390625 256 256-115.390625 256-256 256zm0 0" fill="#deecf1"/><path d="m512 256c0-140.609375-115.390625-256-256-256v512c140.609375 0 256-115.390625 256-256zm0 0" fill="#c6e2e7"/><path d="m241 121h30v150h-30zm0 0" fill="#384949"/><path d="m256 121h15v150h-15zm0 0" fill="#293939"/><path d="m256 391c74.441406 0 135-60.558594 135-135 0-48.0625-25.855469-92.855469-67.484375-116.925781l-15.03125 25.957031c32.386719 18.738281 52.515625 53.585938 52.515625 90.96875 0 57.890625-47.109375 105-105 105s-105-47.109375-105-105c0-37.382812 20.128906-72.230469 52.515625-90.96875l-15.03125-25.957031c-41.628906 24.070312-67.484375 68.863281-67.484375 116.925781 0 74.441406 60.558594 135 135 135zm0 0" fill="#384949"/><path d="m391 256c0-48.0625-25.855469-92.855469-67.484375-116.925781l-15.03125 25.957031c32.386719 18.738281 52.515625 53.585938 52.515625 90.96875 0 57.890625-47.109375 105-105 105v30c74.441406 0 135-60.558594 135-135zm0 0" fill="#293939"/></svg>