<svg viewBox="0 0 512 512" xmlns="http://www.w3.org/2000/svg"><path d="m256 512c-140.609375 0-256-115.390625-256-256s115.390625-256 256-256 256 115.390625 256 256-115.390625 256-256 256zm0 0" fill="#deecf1"/><path d="m512 256c0-140.609375-115.390625-256-256-256v512c140.609375 0 256-115.390625 256-256zm0 0" fill="#c6e2e7"/><path d="m256 151c-57.890625 0-105 47.109375-105 105s47.109375 105 105 105 105-47.109375 105-105-47.109375-105-105-105zm0 0" fill="#e30000"/><path d="m361 256c0-57.890625-47.109375-105-105-105v210c57.890625 0 105-47.109375 105-105zm0 0" fill="#d20000"/></svg>