<svg viewBox="0 0 512 512" xmlns="http://www.w3.org/2000/svg"><path d="m256 512c-140.609375 0-256-115.390625-256-256s115.390625-256 256-256 256 115.390625 256 256-115.390625 256-256 256zm0 0" fill="#deecf1"/><path d="m512 256c0-140.609375-115.390625-256-256-256v512c140.609375 0 256-115.390625 256-256zm0 0" fill="#c6e2e7"/><path d="m331 436v-360l-139.988281 105h-70.011719v150h70.011719zm0 0" fill="#384949"/><g fill="#293939"><path d="m256 379.746094 75 56.253906v-360l-75 56.253906zm0 0"/><path d="m369.027344 309.027344c14.164062-14.148438 21.972656-32.988282 21.972656-53.027344s-7.808594-38.878906-21.972656-53.027344l-21.210938 21.210938c8.496094 8.496094 13.183594 19.789062 13.183594 31.816406s-4.6875 23.320312-13.183594 31.816406zm0 0"/></g></svg>