<svg viewBox="0 0 512 512" xmlns="http://www.w3.org/2000/svg"><path d="m256 512c-140.609375 0-256-115.390625-256-256s115.390625-256 256-256 256 115.390625 256 256-115.390625 256-256 256zm0 0" fill="#deecf1"/><path d="m512 256c0-140.609375-115.390625-256-256-256v512c140.609375 0 256-115.390625 256-256zm0 0" fill="#c6e2e7"/><path d="m406 166-75-60v30h-25.53125c-31.890625 0-61.671875 17.109375-77.738281 44.648438l-70.285157 120.46875c-5.359374 9.183593-15.277343 14.882812-25.914062 14.882812h-25.53125v60h25.53125c31.890625 0 61.671875-17.109375 77.738281-44.648438l70.285157-120.46875c5.359374-9.183593 15.277343-14.882812 25.914062-14.882812h25.53125v30zm0 0" fill="#384949"/><path d="m331 136h-25.53125c-17.957031 0-34.921875 5.886719-49.46875 15.542969v99.714843l23.554688-40.375c5.359374-9.183593 15.277343-14.882812 25.914062-14.882812h25.53125v30l75-60-75-60zm0 0" fill="#293939"/><path d="m157.445312 210.882812 8.960938 15.363282 33.578125-57.554688c-16.929687-20.15625-41.6875-32.691406-68.453125-32.691406h-25.53125v60h25.53125c10.636719 0 20.554688 5.699219 25.914062 14.882812zm0 0" fill="#384949"/><path d="m331 316h-25.53125c-10.636719 0-20.554688-5.699219-25.914062-14.882812l-8.960938-15.363282-33.578125 57.554688c16.929687 20.15625 41.6875 32.691406 68.453125 32.691406h25.53125v30l75-60-75-60zm0 0" fill="#384949"/><path d="m331 316h-25.53125c-10.636719 0-20.554688-5.699219-25.914062-14.882812l-8.960938-15.363282-14.59375 25.011719v49.222656c14.453125 9.921875 31.390625 16.011719 49.46875 16.011719h25.53125v30l75-60-75-60zm0 0" fill="#293939"/></svg>