<svg viewBox="0 0 512 512" xmlns="http://www.w3.org/2000/svg"><path d="m256 512c-140.609375 0-256-115.390625-256-256s115.390625-256 256-256 256 115.390625 256 256-115.390625 256-256 256zm0 0" fill="#deecf1"/><path d="m512 256c0-140.609375-115.390625-256-256-256v512c140.609375 0 256-115.390625 256-256zm0 0" fill="#c6e2e7"/><path d="m151 166v60c0 52.753906 39.25 96.128906 90 103.484375v31.515625h-60v30h150v-30h-60v-31.515625c50.75-7.355469 90-50.730469 90-103.484375v-60h-30v60c0 41.351562-33.648438 75-75 75s-75-33.648438-75-75v-60zm0 0" fill="#384949"/><path d="m331 391v-30h-60v-31.515625c50.75-7.355469 90-50.730469 90-103.484375v-60h-30v60c0 41.351562-33.648438 75-75 75v90zm0 0" fill="#293939"/><path d="m301 226v-90c0-24.8125-20.1875-45-45-45s-45 20.1875-45 45v90c0 24.8125 20.1875 45 45 45s45-20.1875 45-45zm0 0" fill="#384949"/><path d="m301 226v-90c0-24.8125-20.1875-45-45-45v180c24.8125 0 45-20.1875 45-45zm0 0" fill="#293939"/></svg>