<svg viewBox="0 0 512 512" xmlns="http://www.w3.org/2000/svg"><path d="m256 512c-140.609375 0-256-115.390625-256-256s115.390625-256 256-256 256 115.390625 256 256-115.390625 256-256 256zm0 0" fill="#deecf1"/><path d="m512 256c0-140.609375-115.390625-256-256-256v512c140.609375 0 256-115.390625 256-256zm0 0" fill="#c6e2e7"/><path d="m181 286.003906 120 89.996094v-89.996094l120 89.996094v-240l-120 89.996094v-89.996094l-120 89.996094v-74.996094h-90v210h90zm120-150.003906-45 33.75v172.5l45 33.75v-89.996094l120 89.996094v-240l-120 89.996094zm0 0" fill="#293939"/></svg>