<svg viewBox="0 0 512 512" xmlns="http://www.w3.org/2000/svg"><path d="m256 512c-140.609375 0-256-115.390625-256-256s115.390625-256 256-256 256 115.390625 256 256-115.390625 256-256 256zm0 0" fill="#deecf1"/><path d="m512 256c0-140.609375-115.390625-256-256-256v512c140.609375 0 256-115.390625 256-256zm0 0" fill="#c6e2e7"/><path d="m256 376 160.003906-120-160.003906-120v89.996094l-120-89.996094v240l120-89.996094zm0 0" fill="#384949"/><path d="m256 376 160.003906-120-160.003906-120zm0 0" fill="#293939"/></svg>