<svg viewBox="0 0 512 512" xmlns="http://www.w3.org/2000/svg"><path d="m256 512c-140.609375 0-256-115.390625-256-256s115.390625-256 256-256 256 115.390625 256 256-115.390625 256-256 256zm0 0" fill="#deecf1"/><path d="m512 256c0-140.609375-115.390625-256-256-256v512c140.609375 0 256-115.390625 256-256zm0 0" fill="#c6e2e7"/><path d="m301 436v-360l-139.988281 105h-70.011719v150h70.011719zm0 0" fill="#384949"/><g fill="#293939"><path d="m256 402.246094 45 33.753906v-360l-45 33.753906zm0 0"/><path d="m406 196h-30v45h-45v30h45v45h30v-45h45v-30h-45zm0 0"/></g></svg>