<svg viewBox="0 0 512 512" xmlns="http://www.w3.org/2000/svg"><path d="m256 512c-140.609375 0-256-115.390625-256-256s115.390625-256 256-256 256 115.390625 256 256-115.390625 256-256 256zm0 0" fill="#deecf1"/><path d="m512 256c0-140.609375-115.390625-256-256-256v512c140.609375 0 256-115.390625 256-256zm0 0" fill="#c6e2e7"/><path d="m256 72.105469-54.039062 109.511719-120.863282 17.5625 87.464844 85.238281-20.652344 120.351562 108.089844-56.820312 108.089844 56.820312-20.652344-120.351562 87.464844-85.238281-120.863282-17.566407zm0 0" fill="#384949"/><path d="m364.089844 404.769531-20.652344-120.351562 87.464844-85.238281-120.863282-17.566407-54.039062-109.507812v275.84375zm0 0" fill="#293939"/></svg>