<svg viewBox="0 0 512 512" xmlns="http://www.w3.org/2000/svg"><path d="m256 512c-140.609375 0-256-115.390625-256-256s115.390625-256 256-256 256 115.390625 256 256-115.390625 256-256 256zm0 0" fill="#deecf1"/><path d="m512 256c0-140.609375-115.390625-256-256-256v512c140.609375 0 256-115.390625 256-256zm0 0" fill="#c6e2e7"/><path d="m211 376c0 24.8125 20.1875 45 45 45s45-20.1875 45-45-20.1875-45-45-45-45 20.1875-45 45zm0 0" fill="#384949"/><path d="m301 376c0-24.8125-20.1875-45-45-45v90c24.8125 0 45-20.1875 45-45zm0 0" fill="#293939"/><path d="m241 196c0-8.277344 6.722656-15 15-15s15 6.722656 15 15c0 5.535156-3.046875 10.605469-7.96875 13.257812-32.09375 17.300782-52.03125 51.984376-52.03125 90.542969v1.199219h90v-1.199219c0-5.699219 2.433594-10.066406 4.703125-11.296875 34.113281-18.355468 55.296875-53.804687 55.296875-92.503906 0-57.890625-47.109375-105-105-105s-105 47.109375-105 105v15h90zm0 0" fill="#384949"/><path d="m271 196c0 5.535156-3.046875 10.605469-7.96875 13.257812-2.464844 1.328126-4.714844 2.941407-7.03125 4.46875v87.273438h45v-1.199219c0-5.699219 2.433594-10.066406 4.703125-11.296875 34.113281-18.355468 55.296875-53.804687 55.296875-92.503906 0-57.890625-47.109375-105-105-105v90c8.277344 0 15 6.722656 15 15zm0 0" fill="#293939"/></svg>